<mxfile host="app.diagrams.net" modified="2023-06-10T16:59:27.394Z" agent="Mozilla/5.0 (Windows NT 10.0; Win64; x64) AppleWebKit/537.36 (KHTML, like Gecko) Chrome/114.0.0.0 Safari/537.36" version="21.3.8" etag="wfpjhtMr6CYH1zzfrLmJ" type="github">
  <diagram name="Page-1" id="QoBvWFXt9eX2HFQEgx9e">
    <mxGraphModel>
      <root>
        <mxCell id="0" />
        <mxCell id="1" parent="0" />
      </root>
    </mxGraphModel>
  </diagram>
</mxfile>
